<?xml version="1.0" encoding="UTF-8" standalone="no"?>
<svg
   xmlns:dc="http://purl.org/dc/elements/1.1/"
   xmlns:cc="http://creativecommons.org/ns#"
   xmlns:rdf="http://www.w3.org/1999/02/22-rdf-syntax-ns#"
   xmlns:svg="http://www.w3.org/2000/svg"
   xmlns="http://www.w3.org/2000/svg"
   xmlns:sodipodi="http://sodipodi.sourceforge.net/DTD/sodipodi-0.dtd"
   xmlns:inkscape="http://www.inkscape.org/namespaces/inkscape"
   version="1.1"
   id="svg2"
   viewBox="0 0 665.35652 309.26608"
   height="87.281761mm"
   width="187.7784mm"
   inkscape:version="0.91 r13725"
   sodipodi:docname="aes-member.svg">
  <sodipodi:namedview
     pagecolor="#ffffff"
     bordercolor="#666666"
     borderopacity="1"
     objecttolerance="10"
     gridtolerance="10"
     guidetolerance="10"
     inkscape:pageopacity="0"
     inkscape:pageshadow="2"
     inkscape:window-width="1684"
     inkscape:window-height="907"
     id="namedview3341"
     showgrid="false"
     inkscape:zoom="2.2634482"
     inkscape:cx="268.61671"
     inkscape:cy="154.63304"
     inkscape:window-x="0"
     inkscape:window-y="0"
     inkscape:window-maximized="0"
     inkscape:current-layer="svg2" />
  <defs
     id="defs4" />
  <metadata
     id="metadata7">
    <rdf:RDF>
      <cc:Work
         rdf:about="">
        <dc:format>image/svg+xml</dc:format>
        <dc:type
           rdf:resource="http://purl.org/dc/dcmitype/StillImage" />
        <dc:title />
      </cc:Work>
    </rdf:RDF>
  </metadata>
  <g
     transform="translate(-36.100272,-527.81608)"
     id="layer1"
     style="fill:#ffffff;fill-opacity:1">
    <path
       id="path3347"
       d="m 93.071463,836.65384 c -23.55626,-2.50075 -44.299655,-23.36401 -53.55358,-53.86304 -2.101319,-6.92552 -2.324767,-10.06602 -2.917162,-41 -0.352844,-18.425 -0.569126,-58.925 -0.480627,-90 0.141035,-49.52262 0.373381,-57.41552 1.881442,-63.91354 6.526495,-28.12171 23.712325,-50.03799 45.176938,-57.61201 l 6.892989,-2.43227 277.500007,-0.009 c 301.82975,-0.01 281.84924,-0.38341 293.44537,5.48369 6.51485,3.29621 17.72219,12.16288 21.71714,17.18148 7.92914,9.96086 14.05536,23.69188 16.99881,38.10027 1.79758,8.79931 1.88507,14.07038 1.60183,96.50465 l -0.2996,87.19695 -2.3432,8.5 c -4.68279,16.98689 -12.68171,30.74935 -23.9184,41.15254 -7.12212,6.59383 -12.6638,9.97116 -20.93079,12.75611 l -6.15251,2.07263 -274.30932,0.25936 c -150.87013,0.14265 -277.009337,-0.0273 -280.309337,-0.3776 z m 77.324677,-28.3614 c 16.87699,-7.85683 38.3365,-39.75182 51.10605,-75.95824 7.49691,-21.25655 14.06928,-69.26779 14.06928,-102.77633 l 0,-7.76707 -75.65584,0 -75.655849,0 0.609349,19.25 c 0.967125,30.55257 5.557869,60.70674 12.824987,84.24055 12.424023,40.2339 33.621563,73.7964 52.142493,82.55828 7.81276,3.69606 13.33171,3.81761 20.55953,0.45281 z m -15.12668,-3.94558 C 139.39987,798.6863 120.26249,771.6759 107.10824,736.37238 97.586637,710.81819 91.698062,678.34083 90.00345,642.03401 l -0.712107,-15.2568 70.335837,0.2568 70.33583,0.25679 -0.23316,10.5 c -0.52457,23.62341 -4.13528,55.99245 -8.25458,74 -9.45733,41.34277 -36.5485,86.42601 -55.80302,92.86351 -4.25923,1.42402 -5.66504,1.38247 -10.40279,-0.30745 z m 13.60216,-6.02825 c 8.51093,-4.0387 20.83018,-19.70051 30.09281,-38.25783 2.53387,-5.07651 4.60704,-9.46401 4.60704,-9.75 0,-0.28599 -19.35,-0.51998 -43,-0.51998 -23.65,0 -43,0.24604 -43,0.54675 0,1.41111 10.60509,21.53841 14.61335,27.73455 9.67721,14.95944 20.38469,23.255 28.92682,22.41091 2.22209,-0.21958 5.71409,-1.19356 7.75998,-2.1644 z m -1.80015,-15.43112 c -2.11632,-0.43478 -3,-1.19985 -3,-2.59733 0,-1.73343 0.68734,-1.98214 5.5,-1.99018 5.18345,-0.009 5.5,-0.1517 5.5,-2.48541 0,-1.93809 -1.04149,-3.02677 -4.79239,-5.00956 -2.63581,-1.39334 -5.21642,-3.20403 -5.73468,-4.02377 -1.64355,-2.59961 -1.05313,-6.00115 1.48162,-8.53589 1.94973,-1.94974 3.48007,-2.45455 7.44098,-2.45455 5.18597,0 6.50679,0.78801 5.54069,3.30561 -0.41536,1.08241 -1.582,1.3504 -4.29473,0.98654 -6.72299,-0.90174 -8.11424,4.57165 -1.70011,6.6885 12.92665,4.26618 7.53718,18.88515 -5.94138,16.11604 z m -25.5,-13.59669 0,-13.5 8,0 c 7.33333,0 8,0.16667 8,2 0,1.75758 -0.66667,2 -5.5,2 l -5.5,0 0,3.5 0,3.5 5,0 c 4.33333,0 5,0.26667 5,2 0,1.73333 -0.66667,2 -5,2 l -5,0 0,4 0,4 5.5,0 c 4.83333,0 5.5,0.24242 5.5,2 0,1.83333 -0.66667,2 -8,2 l -8,0 0,-13.5 z m 5,-33 0,-6.5 8.5,0 8.5,0 0,6.5 0,6.5 10.5,0 10.5,0 0,-35.85212 c 0,-35.70318 -0.01,-35.86623 -2.2887,-39.25 -1.25879,-1.86883 -4.29629,-4.52288 -6.75,-5.89788 -4.00584,-2.24477 -5.58431,-2.5 -15.4613,-2.5 -12.66899,0 -17.25008,1.68476 -22.19207,8.16145 l -2.80793,3.67992 -0.28603,35.82932 -0.28604,35.82931 6.03604,0 6.03603,0 0,-6.5 z m 0.4974,-13.33593 c -0.27357,-0.27357 -0.4974,-12.06172 -0.4974,-26.19588 0,-24.48426 0.0979,-25.82297 2.07258,-28.33333 1.67218,-2.12583 2.91389,-2.63486 6.42742,-2.63486 3.51353,0 4.75524,0.50903 6.42742,2.63486 1.97544,2.51136 2.07258,3.84713 2.07258,28.5 0,14.22583 -0.3375,25.91579 -0.75,25.97769 -2.76409,0.41481 -15.34816,0.45596 -15.7526,0.0515 z M 101.16082,649.2908 c 0.48127,-1.91753 1.27591,-2.5 3.41065,-2.5 2.13474,0 2.92937,0.58247 3.41064,2.5 0.40513,1.61415 1.32939,2.5 2.60841,2.5 2.47349,0 2.48872,0.26794 -0.5512,-9.6984 -2.39224,-7.84294 -2.68807,-8.3016 -5.35432,-8.3016 -2.65673,0 -2.95628,0.45436 -5.109413,7.75 -1.25797,4.2625 -2.496671,8.3125 -2.752662,9 -0.279076,0.74949 0.370582,1.25 1.622502,1.25 1.39314,0 2.296733,-0.83191 2.715393,-2.5 z m 2.03227,-8.25 c 0.36285,-1.5125 0.82142,-2.9375 1.01905,-3.16667 0.56183,-0.65149 1.02359,0.18999 1.7377,3.16667 0.55568,2.31627 0.33828,2.75 -1.37837,2.75 -1.71666,0 -1.93406,-0.43373 -1.37838,-2.75 z m 35.3058,8.11514 c 1.60373,-2.03881 2.07258,-4.07475 2.07258,-9 0,-5.69847 -0.20947,-6.36514 -2,-6.36514 -1.79093,0 -2,0.66667 -2,6.37756 0,7.08481 -1.7193,9.91606 -4.83382,7.96006 -1.22529,-0.76951 -1.74442,-2.80493 -1.96187,-7.69201 -0.26499,-5.95555 -0.51034,-6.64561 -2.36285,-6.64561 -1.92825,0 -2.04086,0.46543 -1.67577,6.92655 0.46417,8.21479 2.37883,11.07345 7.41672,11.07345 2.34419,0 3.86033,-0.74739 5.34501,-2.63486 z m 27.61106,1.18323 c 2.13807,-0.89334 3.8819,-2.52387 4.53422,-4.2396 1.26092,-3.31647 0.45129,-8.629 -1.57081,-10.3072 -2.00175,-1.66131 -8.53848,-3.02469 -11.25189,-2.34684 -2.12249,0.53023 -2.25,1.06598 -2.25,9.45368 l 0,8.89159 3.53212,0 c 1.94266,0 5.09553,-0.65323 7.00636,-1.45163 z m -6.53848,-8.165 c 0,-6.37369 0.0826,-6.59449 2.25,-6.01366 1.2375,0.33164 2.53291,0.60913 2.87868,0.61664 0.34577,0.008 1.17096,1.32282 1.83374,2.92292 1.77519,4.2857 -0.95435,9.03816 -5.21242,9.07542 -1.49189,0.013 -1.75,-0.9606 -1.75,-6.60132 z m 30,0.61663 c 0,-8.33333 -0.14815,-9 -2,-9 -1.85185,0 -2,0.66667 -2,9 0,8.33333 0.14815,9 2,9 1.85185,0 2,-0.66667 2,-9 z m 28.54545,6.54545 c 4.2909,-4.2909 2.82534,-13.3208 -2.52143,-15.5355 -5.99454,-2.48302 -12.02402,2.11548 -12.02402,9.17036 0,5.21135 3.47755,8.81969 8.5,8.81969 2.47924,0 4.35079,-0.75988 6.04545,-2.45455 z m -8.89046,-2.37419 c -2.24487,-2.48056 -2.08458,-6.74167 0.34501,-9.17126 2.55648,-2.55648 3.52453,-2.51691 5.4433,0.22251 2.00023,2.85573 1.99329,7.19805 -0.0147,9.20606 -2.06027,2.06028 -3.74411,1.98523 -5.77358,-0.25731 z m 181.59501,99.78829 c 5.09698,-1.28442 5.25878,-1.58792 3.74721,-7.02922 l -0.99163,-3.56967 -5.75279,1.16417 c -10.11977,2.04788 -18.29247,0.52307 -22.36355,-4.17245 -1.91468,-2.20837 -3.96811,-7.94018 -3.14092,-8.76737 0.32176,-0.32175 8.61001,-0.58501 18.41835,-0.58501 l 17.83333,0 0,-5.3185 c 0,-16.99507 -10.61661,-27.92976 -25.61444,-26.38184 -14.39064,1.48524 -23.81357,12.92568 -23.69575,28.76913 0.10935,14.70401 6.68979,23.53693 20.04466,26.90593 4.50215,1.13575 14.93309,0.64359 21.51553,-1.01517 z m -28.25,-33.55842 c 0,-3.10594 3.30509,-8.50754 6.08519,-9.94518 3.39969,-1.75805 9.83189,-1.8517 11.9607,-0.17415 2.78371,2.19363 4.95411,6.11055 4.95411,8.94071 l 0,2.77749 -11.5,0 c -9.87162,0 -11.5,-0.2264 -11.5,-1.59887 z m 177.54888,34.48224 c 5.98963,-1.5082 12.59381,-7.50568 15.52162,-14.09569 1.91429,-4.30876 2.34218,-6.95387 2.31124,-14.28768 -0.0424,-10.04315 -1.38336,-14.15438 -6.52805,-20.01386 -4.60104,-5.24029 -8.3261,-6.85199 -15.85369,-6.85931 -6.90467,-0.007 -9.82513,1.05541 -14.25,5.18245 l -2.75,2.5649 0,-15.68709 0,-15.68709 -7,0 -7,0 0,39.5 0,39.5 5.37219,0 5.37219,0 0.61975,-3.87568 0.61975,-3.87568 3.38996,3.19715 c 5.41127,5.10348 11.87999,6.5263 20.17504,4.43758 z m -16.12857,-11.76884 c -4.51396,-2.75261 -5.67967,-6.54359 -5.27161,-17.14377 0.34993,-9.09037 0.36584,-9.13923 4.08661,-12.54833 3.09026,-2.83141 4.50896,-3.42243 8.21521,-3.42243 3.57827,0 5.18641,0.62034 7.99039,3.08227 7.56392,6.6412 7.56392,22.19426 0,28.83546 -4.20333,3.69058 -10.15361,4.16469 -15.0206,1.1968 z m 84.95568,10.78348 3.87599,-1.04295 -0.63029,-4.5985 c -0.34666,-2.52918 -0.79095,-4.75915 -0.98731,-4.95551 -0.19635,-0.19635 -1.65691,0.14459 -3.24569,0.75766 -4.98243,1.92258 -16.38678,1.64886 -20.75675,-0.49819 -4.18029,-2.05385 -7.62221,-6.70607 -7.6282,-10.31052 l -0.004,-2.25 17.98095,0 17.98095,0 0.63021,-2.51097 c 0.96545,-3.84665 -1.5106,-14.96298 -4.28636,-19.24384 -5.1146,-7.88789 -14.41882,-11.40151 -24.59663,-9.2886 -7.73593,1.60597 -13.37372,6.03644 -17.19873,13.51566 -2.69331,5.26633 -3.01039,6.84176 -3.01039,14.95704 0,8.15222 0.29551,9.60407 2.91832,14.33796 3.28293,5.92534 9.73055,10.8401 15.47543,11.7963 1.98344,0.33013 4.05625,0.78109 4.60625,1.00213 1.57714,0.63384 14.59793,-0.51652 18.87599,-1.66767 z M 579.57521,713.0408 c 0.006,-2.60237 3.52878,-7.89759 6.58876,-9.90257 3.40408,-2.23043 9.9661,-2.04685 12.66342,0.35429 2.15901,1.92193 4.74408,7.24355 4.74408,9.76616 0,1.29104 -1.88819,1.53212 -12,1.53212 -10.76333,0 -11.99961,-0.18035 -11.99626,-1.75 z m -308.53928,30.5 c 0.32285,-2.3375 1.14932,-16.4 1.83661,-31.25 l 1.24962,-27 2.75742,11 c 1.51658,6.05 5.5366,19.8875 8.93337,30.75 l 6.17595,19.75 5.29129,0 c 2.9102,0 5.29128,-0.13766 5.29128,-0.30592 0,-0.16826 3.40224,-10.40576 7.56054,-22.75 4.1583,-12.34424 8.58959,-25.97896 9.84733,-30.29936 l 2.2868,-7.85528 1.24143,29.85528 c 0.68279,16.4204 1.41237,30.41778 1.62129,31.10528 0.25387,0.83545 2.56976,1.25 6.98318,1.25 l 6.60334,0 -0.58141,-5.25 c -0.31978,-2.8875 -1.01766,-14.025 -1.55085,-24.75 -0.53319,-10.725 -1.27252,-25.2375 -1.64295,-32.25 l -0.67351,-12.75 -9.13905,0 -9.13905,0 -7.15251,21.25 c -3.93388,11.6875 -7.92936,24.3748 -8.87885,28.194 l -1.72634,6.944 -2.83351,-10.865 c -1.55842,-5.97576 -5.32333,-18.66306 -8.36645,-28.19401 l -5.53294,-17.32899 -8.91793,0 -8.91793,0 -0.52264,3.25 c -0.53811,3.3462 -4.56799,64.27951 -4.56799,69.06967 0,2.60622 0.1642,2.68033 5.93873,2.68033 l 5.93872,0 0.58701,-4.25 z m 152.53554,-14.79895 c 0.55056,-20.42449 1.12865,-22.51906 6.87172,-24.89792 3.875,-1.60507 7.80391,-0.36704 10.56743,3.32988 1.88151,2.517 2.08788,4.40426 2.37146,21.68695 l 0.31061,18.93004 6.43939,0 6.43939,0 0,-18.04966 c 0,-19.94635 0.64119,-22.67919 5.96727,-25.43341 4.25842,-2.20212 6.58951,-1.88449 10.26695,1.39895 l 3.26578,2.91588 0.30943,19.58412 0.30942,19.58412 6.44058,0 6.44057,0 -0.01,-20.25 c -0.009,-19.34817 -0.11824,-20.48299 -2.44543,-25.48151 -5.3798,-11.55519 -18.96143,-13.45625 -29.13544,-4.07818 -2.42515,2.23543 -4.40936,3.59171 -4.40936,3.01397 0,-2.14869 -6.24268,-7.19254 -10.23142,-8.26659 -6.65733,-1.79264 -12.30575,-0.4055 -17.37465,4.26685 l -4.3937,4.05018 0,-4.12736 0,-4.12736 -6,0 -6,0 0,26.83333 c 0,14.75834 0.31903,27.15237 0.70896,27.5423 0.38993,0.38992 3.42743,0.57742 6.75,0.41666 l 6.04104,-0.29229 0.5,-18.54895 z m 217.17865,2.29895 c 0.30604,-13.47905 0.7196,-17.38136 2.11776,-19.98307 2.08776,-3.88495 6.32723,-6.26693 11.15393,-6.26693 l 3.54966,0 0,-6.62781 0,-6.62781 -4.21649,0.67425 c -4.76587,0.76209 -10.37646,4.59389 -12.02535,8.21281 -1.41795,3.11207 -2.72148,1.31266 -2.74285,-3.78626 l -0.0153,-3.65481 -5.75,0.16216 c -3.1625,0.0892 -5.6375,0.49635 -5.5,0.90481 0.1375,0.40846 0.25,12.66766 0.25,27.24266 l 0,26.5 6.39917,0 6.39917,0 0.38031,-16.75 z M 654.8491,602.54031 c 1.5277,-1.05878 3.83414,-4.02305 5.12542,-6.58728 2.13773,-4.2451 10.59695,-26.37373 10.59695,-27.72077 0,-0.3125 -1.4625,-0.42717 -3.25,-0.25482 -3.17257,0.30589 -3.30956,0.52175 -5.75,9.06077 -1.375,4.81107 -2.73024,8.74857 -3.01164,8.75 -0.2814,10e-4 -1.82632,-4.04741 -3.43317,-8.99741 -2.90113,-8.93716 -2.94469,-9 -6.23836,-9 -1.82426,0 -3.31449,0.3375 -3.31163,0.75 0.003,0.4125 2.02786,5.63783 4.5,11.61185 2.47214,5.97401 4.4948,11.71151 4.4948,12.75 0,1.93719 -2.47627,4.93605 -5.45014,6.60031 -1.21084,0.67762 -1.49417,1.66156 -1.02114,3.54626 0.72456,2.88687 1.98646,2.79171 6.74891,-0.50891 z m -361.97957,-1.58438 3.20194,-3.20029 0.34172,-14.98242 0.34171,-14.98242 -2.48472,0 c -1.37804,0 -2.76437,0.72872 -3.11257,1.63612 -0.58129,1.51482 -0.76187,1.51482 -2.43573,0 -0.99434,-0.89987 -3.25731,-1.63612 -5.02881,-1.63612 -9.36283,0 -14.7437,9.78867 -10.70038,19.4657 2.59467,6.20992 10.9182,8.25207 15.76316,3.86744 1.70852,-1.5462 1.81562,-1.49446 1.81562,0.87701 0,1.38607 -0.97677,3.7619 -2.17061,5.27962 -2.04257,2.5967 -2.50801,2.72421 -7.89037,2.16164 -5.17376,-0.54076 -5.77055,-0.40365 -6.25172,1.43634 -0.73285,2.80244 2.39363,3.96887 9.61076,3.58559 4.97888,-0.26441 6.25043,-0.76006 9,-3.50821 z m -12.77944,-14.14455 c -1.09974,-1.2152 -1.79135,-3.53965 -1.79135,-6.02058 0,-6.67865 5.20112,-10.49808 9.52638,-6.99569 3.06043,2.47819 3.26134,11.41473 0.30522,13.5763 -2.72145,1.98997 -5.9351,1.76613 -8.04025,-0.56003 z m 202.04949,16.51541 c 5.34204,-2.23205 6.43189,-5.96049 6.43189,-22.00387 l 0,-13.53212 -2.45031,0 c -1.34767,0 -2.84397,0.70343 -3.32511,1.56319 -0.79332,1.41758 -0.99565,1.41758 -2.17214,0 -1.72383,-2.0771 -8.93193,-2.03633 -11.93557,0.0675 -5.24936,3.67679 -6.70857,13.7052 -2.83324,19.47142 3.65926,5.44471 8.39705,6.09044 15.79713,2.15305 0.31942,-0.16996 0.37709,1.07865 0.12817,2.77469 -0.65942,4.49289 -4.07712,6.37794 -10.11209,5.57737 -3.93999,-0.52265 -4.9852,-0.34053 -5.48246,0.95529 -0.88716,2.31191 -0.83934,2.41151 1.63562,3.40632 3.4768,1.3975 10.44136,1.18696 14.31811,-0.43285 z m -9.56811,-16.53599 c -4.59537,-4.59537 -1.93856,-14 3.95499,-14 3.87412,0 5.04501,1.7705 5.04501,7.62857 0,7.81528 -4.42414,10.94729 -9,6.37143 z m -326.61745,5.01745 c 1.46476,-1.46476 2.61745,-1.25225 2.61745,0.48255 0,0.93333 0.94444,1.5 2.5,1.5 l 2.5,0 0,-18.75218 0,-18.75218 -3,-0.0399 -3,-0.0399 0,7.34877 0,7.34877 -2.22251,-1.55671 c -5.32851,-3.73223 -13.63785,-0.53987 -15.82218,6.07871 -2.57769,7.81048 1.34094,17.61856 7.43244,18.60292 2.56796,0.41497 7.60185,-0.82793 8.9948,-2.22088 z m -6.14358,-2.7854 c -3.02718,-0.50079 -5.61153,-5.61923 -4.82439,-9.55493 1.916,-9.58 12.58542,-8.63803 12.58542,1.11113 0,5.89643 -3.05671,9.22205 -7.76103,8.4438 z m 54.35532,2.6897 c 4.32124,-3.58631 5.74449,-12.43215 2.88878,-17.95449 -3.28094,-6.34464 -14.62392,-8.00192 -20.02694,-2.92605 -7.43751,6.98718 -3.97173,20.83345 5.72854,22.88628 3.79894,0.80395 9.15964,-0.13842 11.40962,-2.00574 z m -12.52171,-4.55661 c -2.95917,-3.76197 -2.78211,-9.74652 0.38197,-12.9106 2.95431,-2.95431 4.56607,-3.06818 7.68467,-0.5429 1.90948,1.54621 2.36078,2.86429 2.36078,6.89502 0,8.43644 -5.98779,12.20255 -10.42742,6.55848 z m 184.67742,6.08833 c 0.6875,-0.21488 1.25,-1.3324 1.25,-2.48336 0,-1.90414 -0.39351,-2.03365 -4.36829,-1.43759 -5.10425,0.76543 -10.07077,-1.27948 -10.91099,-4.49247 -0.50748,-1.94063 -0.0994,-2.04005 8.3729,-2.04005 8.8636,0 8.90638,-0.0122 8.90638,-2.53212 0,-3.7522 -2.46983,-8.98313 -5.11687,-10.83719 -3.6449,-2.55299 -10.16302,-2.10751 -13.78752,0.94231 -5.23746,4.40703 -6.33271,13.80974 -2.24053,19.23488 3.10829,4.12075 11.13987,5.75696 17.89492,3.64559 z m -13.78196,-15.47323 c -1.7067,-1.05479 2.89033,-5.98024 5.58149,-5.98024 2.46924,0 6.34768,4.43612 5.03025,5.75355 -0.88504,0.88505 -9.25713,1.06389 -10.61174,0.22669 z m 38.53196,16.08778 c 2.97058,-0.14652 4.64491,-1.52683 3.97371,-3.27592 -0.44277,-1.15386 -1.95141,-1.51543 -5.92516,-1.42005 -3.96614,0.0952 -5.87106,-0.35981 -7.43985,-1.77704 -4.0705,-3.67727 -2.79399,-4.59501 6.3913,-4.59501 l 8.5,0 0,-3.54966 c 0,-4.21496 -2.26385,-8.986 -4.94461,-10.4207 -2.42851,-1.2997 -8.14349,-1.32684 -11.48983,-0.0546 -6.55785,2.49329 -8.94478,15.04394 -3.98265,20.9411 2.57223,3.05691 7.11148,4.92016 10.91709,4.48119 1.1,-0.12688 2.9,-0.27508 4,-0.32934 z M 379.572,577.0408 c -8e-4,-1.88214 3.74843,-5.25 5.84448,-5.25 2.007,0 5.15499,2.94876 5.15499,4.82874 0,0.64419 -0.7875,1.22134 -1.75,1.28256 -7.28719,0.46348 -9.24899,0.2808 -9.24947,-0.8613 z m 143.90976,15.29639 c 4.89201,-2.52975 6.63014,-10.0064 3.31747,-14.27027 -0.95027,-1.22314 -4.54026,-3.58217 -7.97776,-5.24229 -5.22358,-2.5227 -6.25,-3.43375 -6.25,-5.54755 0,-3.58949 3.85124,-5.20609 9.07859,-3.81083 3.75446,1.00213 3.98193,0.93158 4.57158,-1.41776 0.8297,-3.30578 -0.86286,-4.22359 -7.82344,-4.24238 -4.6222,-0.0125 -6.22968,0.45287 -8.67649,2.51172 -6.72064,5.65505 -4.90699,12.17776 4.85853,17.47338 4.85972,2.63533 6.57793,4.13175 6.8362,5.9538 0.62255,4.39207 -5.81235,6.52949 -12.26815,4.075 -2.26056,-0.85947 -2.62583,-0.68211 -3.18519,1.54657 -0.76149,3.03401 -0.43228,3.42142 3.80762,4.48072 4.06521,1.01565 10.11533,0.34931 13.71104,-1.51011 z m 29.61388,0.0297 c 3.93522,-2.57845 5.86045,-6.38135 5.86045,-11.57612 0,-8.19756 -4.901,-13.16667 -12.98618,-13.16667 -5.5241,0 -9.08446,2.21252 -11.64689,7.23775 -6.32685,12.40774 7.24188,25.06027 18.77262,17.50504 z m -10.66339,-4.48777 c -1.90384,-1.54161 -2.36078,-2.86674 -2.36078,-6.84627 0,-6.00341 1.65337,-8.24205 6.08726,-8.24205 4.4263,0 5.91021,2.88807 5.52343,10.75 -0.12477,2.53627 -3.3928,6.25 -5.49991,6.25 -0.76406,0 -2.45156,-0.86024 -3.75,-1.91165 z m 40.89493,5.48927 c 0.26647,-0.26646 0.22392,-1.52265 -0.0946,-2.79152 -0.51339,-2.04552 -1.0776,-2.26739 -4.97725,-1.95724 -3.81094,0.3031 -4.68433,-0.0139 -6.54106,-2.37439 -2.91584,-3.70689 -2.75108,-7.93715 0.43317,-11.1214 2.1375,-2.1375 3.23008,-2.48829 6.41823,-2.06067 3.4619,0.46434 3.90461,0.26672 4.47265,-1.99652 0.82317,-3.27981 0.51156,-3.49482 -5.165,-3.56364 -11.80131,-0.14307 -18.7005,10.1433 -13.55035,20.20295 2.50388,4.89075 7.52073,7.34909 13.63406,6.68091 2.68709,-0.2937 5.10363,-0.75201 5.3701,-1.01848 z m 36.09507,0.32455 c 3.19066,-1.11227 3.55567,-1.67498 2.64029,-4.07038 -0.36524,-0.95576 -2.16808,-1.23776 -6.38514,-0.99876 -5.20295,0.29487 -6.06123,0.0689 -7.49107,-1.97251 -0.88817,-1.26801 -1.61486,-2.65537 -1.61486,-3.083 0,-0.42762 4.07173,-0.77749 9.0483,-0.77749 l 9.0483,0 -0.59656,-4.25 c -1.12213,-7.99424 -6.92922,-12.34473 -14.26843,-10.68947 -8.51458,1.92035 -11.82128,11.08932 -7.68392,21.30634 0.89205,2.20288 7.84507,5.57986 11.55309,5.61117 1.43042,0.0121 4.01792,-0.47206 5.75,-1.07587 z M 606.60327,577.0408 c 0.0656,-1.54568 2.55561,-3.98428 4.7937,-4.69462 1.604,-0.50909 2.9117,-0.1982 4.24616,1.00947 3.47185,3.14198 2.43044,4.43515 -3.57166,4.43515 -3.025,0 -5.48569,-0.3375 -5.4682,-0.75 z m -534.116907,11.70498 1.293,-5.04502 6.100384,0.29502 6.100384,0.29502 1.471234,4.75 c 1.376416,4.44388 1.689827,4.75 4.863053,4.75 2.775993,0 3.290612,-0.31773 2.834389,-1.75 -0.306587,-0.9625 -2.961163,-8.95 -5.899058,-17.75 l -5.341628,-16 -3.979182,-0.29826 -3.979181,-0.29825 -5.319548,16.79825 c -2.925751,9.23904 -5.534013,17.36076 -5.796136,18.04826 -0.323755,0.84915 0.619485,1.25 2.941351,1.25 3.268065,0 3.474636,-0.22122 4.710938,-5.04502 z m 3.0851,-10.47008 c 0,-1.23331 3.395342,-13.05313 3.935888,-13.70156 0.328583,-0.39416 1.538813,2.64334 2.689402,6.75 l 2.091978,7.46666 -4.358634,0 c -2.397249,0 -4.358634,-0.2318 -4.358634,-0.5151 z m 39.000007,14.0151 c 0.68469,-0.825 1.63978,-1.5 2.12244,-1.5 0.48266,0 0.87756,0.675 0.87756,1.5 0,0.93333 0.94444,1.5 2.5,1.5 l 2.5,0 0,-13 0,-13 -3,0 -3,0 0,8.84501 c 0,9.73421 -1.49475,12.65077 -6.14251,11.98535 -3.3918,-0.48561 -4.82616,-4.35984 -4.84275,-13.08036 l -0.0147,-7.75 -3,0 -3.000003,0 0,8.9349 c 0,9.42432 1.023043,13.75484 3.736153,15.8151 2.31246,1.75601 9.73574,1.59125 11.26385,-0.25 z m 53,-11.56336 0,-13.06336 -3.25,0.31336 -3.25,0.31336 -0.27988,12.75 -0.27987,12.75 3.52987,0 3.52988,0 0,-13.06336 z m 70,10.56336 c 0,-2.44444 -0.16667,-2.5 -7.5,-2.5 l -7.5,0 0,-5.5 0,-5.5 6.5,0 c 6.26667,0 6.5,-0.0897 6.5,-2.5 0,-2.41026 -0.23333,-2.5 -6.5,-2.5 l -6.5,0 0,-4.5 c 0,-4.22276 0.16943,-4.505 2.75,-4.58113 10.9406,-0.32273 10.73207,-0.26302 11.06642,-3.16887 l 0.31642,-2.75 -10.56642,0 -10.56642,0 0,18 0,18 11,0 11,0 0,-2.5 z m 12,-6.42857 c 0,-9.74234 1.06818,-12.07143 5.53624,-12.07143 3.47122,0 4.46376,2.76483 4.46376,12.43426 l 0,8.56574 3,0 3,0 0,-10.54546 c 0,-9.86307 -0.15883,-10.70428 -2.45455,-13 -3.16204,-3.16204 -9.19126,-3.36482 -12.35689,-0.41559 l -2.18856,2.03896 0,-2.03896 c 0,-1.59884 -0.64756,-2.03895 -3,-2.03895 l -3,0 0,13 0,13 3.5,0 3.5,0 0,-8.92857 z m 60,-4.07143 0,-13 -3,0 -3,0 0,13 0,13 3,0 3,0 0,-13 z m 14,4.32874 c 0,-9.39913 1.29624,-12.32874 5.45499,-12.32874 3.81177,0 4.54501,1.88755 4.54501,11.7 l 0,9.3 3.61342,0 3.61342,0 -0.38661,-10.44413 c -0.34657,-9.36226 -0.63534,-10.70887 -2.78774,-13 -3.04927,-3.24579 -8.62957,-3.46298 -12.41763,-0.48329 l -2.63486,2.07258 0,-2.07258 c 0,-1.61423 -0.63324,-2.07258 -2.86342,-2.07258 l -2.86343,0 0.35889,10.75 c 0.19738,5.9125 0.36092,11.7625 0.36342,13 0.004,1.83232 0.56144,2.25 3.00454,2.25 l 3,0 0,-8.67126 z m 85,0.89377 c 0,-8.79236 1.55945,-12.22251 5.5567,-12.22251 2.04811,0 2.4433,-0.48523 2.4433,-3 0,-2.50941 -0.39695,-3 -2.42742,-3 -1.43131,0 -3.27792,1.08123 -4.5,2.63486 l -2.07258,2.63485 0,-2.63485 c 0,-2.14385 -0.46588,-2.63486 -2.5,-2.63486 l -2.5,0 0,13 0,13 3,0 3,0 0,-7.77749 z m 19,-5.22251 0,-13 -3,0 -3,0 0,13 0,13 3,0 3,0 0,-13 z m 14,4.07143 c 0,-9.43654 1.09138,-12.07143 5,-12.07143 3.90862,0 5,2.63489 5,12.07143 l 0,8.92857 3.48822,0 3.48822,0 -0.39334,-7.75 c -0.21634,-4.2625 -0.43603,-9.00796 -0.48822,-10.54546 -0.22566,-6.64855 -9.90313,-10.32676 -14.90632,-5.66559 l -2.18856,2.03896 0,-2.03896 c 0,-1.59884 -0.64756,-2.03895 -3,-2.03895 l -3,0 0,13 0,13 3.5,0 3.5,0 0,-8.92857 z m 153.19441,-4.06968 -0.3056,-13.00175 -2.87702,0 c -3.71628,0 -3.97349,0.97757 -3.88086,14.75 l 0.0756,11.25 3.64671,0.002 3.64671,0.002 -0.30559,-13.00175 z m 47.80559,10.49825 c 0,-1.97019 -0.50713,-2.5 -2.39301,-2.5 -3.01346,0 -3.60699,-1.57667 -3.60699,-9.58179 l 0,-6.41821 3.5,0 c 3.06667,0 3.5,-0.30953 3.5,-2.5 0,-2.19048 -0.43333,-2.5 -3.5,-2.5 -3.33333,0 -3.5,-0.16667 -3.5,-3.5 0,-3.69175 -0.17704,-3.82723 -3.75,-2.86972 -1.67369,0.44854 -2.25,1.34152 -2.25,3.48635 0,2.2167 -0.46242,2.88337 -2,2.88337 -1.46667,0 -2,0.66666 -2,2.5 0,1.83333 0.53333,2.5 2,2.5 1.83892,0 2,0.66666 2,8.27749 0,10.57993 1.27261,12.72251 7.5567,12.72251 4.07285,0 4.4433,-0.20843 4.4433,-2.5 z m -48.93426,-27.53519 c 2.72182,-1.45667 2.43121,-4.78127 -0.53613,-6.13327 -1.88895,-0.86067 -2.83039,-0.8268 -4,0.14388 -2.04826,1.69991 -1.9375,4.68763 0.22039,5.94448 2.1956,1.27882 2.01371,1.27692 4.31574,0.0449 z M 167.07147,560.7908 c 0,-1.98518 -0.56748,-2.56528 -2.75569,-2.81697 -1.79706,-0.20671 -2.96486,0.22813 -3.35698,1.25 -1.07354,2.79759 0.40152,4.72389 3.35698,4.38394 2.18821,-0.2517 2.75569,-0.8318 2.75569,-2.81697 z m 142.86163,1.5 c 0.9446,-2.46159 -0.41434,-4.5 -3,-4.5 -1.33342,0 -2.68342,0.675 -3,1.5 -0.9446,2.46159 0.41434,4.5 3,4.5 1.33341,0 2.68341,-0.675 3,-1.5 z m 117.44905,-1.18234 c 0.4353,-3.05763 -3.08478,-4.90071 -5.24123,-2.74425 -1.79558,1.79558 -1.77752,1.72079 -0.9417,3.8989 0.9588,2.4986 5.79132,1.59614 6.18293,-1.15465 z"
       style="fill:#ffffff;fill-opacity:1" />
  </g>
</svg>
