<?xml version="1.0" encoding="UTF-8" standalone="no"?>
<svg
   xmlns:dc="http://purl.org/dc/elements/1.1/"
   xmlns:cc="http://creativecommons.org/ns#"
   xmlns:rdf="http://www.w3.org/1999/02/22-rdf-syntax-ns#"
   xmlns:svg="http://www.w3.org/2000/svg"
   xmlns="http://www.w3.org/2000/svg"
   viewBox="0 0 263.79999 80.762497"
   height="80.762497"
   width="263.79999"
   xml:space="preserve"
   version="1.1"
   id="svg4155"><metadata
     id="metadata4161"><rdf:RDF><cc:Work
         rdf:about=""><dc:format>image/svg+xml</dc:format><dc:type
           rdf:resource="http://purl.org/dc/dcmitype/StillImage" /><dc:title></dc:title></cc:Work></rdf:RDF></metadata><defs
     id="defs4159" /><g
     transform="matrix(1.25,0,0,-1.25,0,80.7625)"
     id="g4163"><g
       transform="scale(0.1,0.1)"
       id="g4165"><path
         id="path4167"
         style="fill:#1a64b7;fill-opacity:1;fill-rule:nonzero;stroke:none"
         d="m 0,84.0039 421.363,0 0,421.355 -421.363,0 0,-421.355 z" /><path
         id="path4169"
         style="fill:#0492d2;fill-opacity:1;fill-rule:nonzero;stroke:none"
         d="m 297.461,381.52 247.805,0 0,247.797 -247.805,0 0,-247.797 z" /><path
         id="path4171"
         style="fill:#1a64b7;fill-opacity:1;fill-rule:nonzero;stroke:none"
         d="m 875.305,420.715 c -16.457,-25.551 -50.754,-45.5 -91.707,-45.5 -73.856,0 -129.16,54.949 -129.16,130.207 0,75.254 55.304,130.207 129.16,130.207 30.8,0 64.054,-11.551 85.754,-39.203 l -22.047,-16.449 c -9.805,16.097 -37.457,32.546 -63.707,32.546 -63.703,0 -101.86,-50.046 -101.86,-107.101 0,-57.059 38.157,-107.109 101.86,-107.109 25.906,0 52.5,8.402 71.054,37.101 l 20.653,-14.699" /><path
         id="path4173"
         style="fill:#1a64b7;fill-opacity:1;fill-rule:nonzero;stroke:none"
         d="m 895.234,646.129 23.102,0 0,-127.063 0.703,0 c 10.149,17.86 33.25,30.457 54.953,30.457 41.648,0 61.608,-23.449 61.608,-64.054 l 0,-103.953 -23.1,0 0,90.652 c 0,36.402 -10.16,56.352 -44.453,56.352 -4.906,0 -49.711,-3.149 -49.711,-63 l 0,-84.004 -23.102,0 0,264.613" /><path
         id="path4175"
         style="fill:#1a64b7;fill-opacity:1;fill-rule:nonzero;stroke:none"
         d="m 1161.94,463.066 c -23.45,0 -76.3,-1.75 -76.3,-34.648 0,-21.703 19.95,-30.105 38.5,-30.105 33.6,0 49.71,23.8 49.71,52.855 l 0,11.898 -11.91,0 z m 11.91,18.903 0,4.199 c 0,28.355 -13.66,42.352 -42.01,42.352 -19.26,0 -36.05,-6.649 -50.06,-19.247 l -14,16.446 c 15.06,15.402 38.51,23.804 69.31,23.804 32.21,0 59.85,-18.199 59.85,-58.109 l 0,-73.148 c 0,-12.602 1.4,-28 2.8,-36.75 l -22.39,0 c -1.41,8.047 -2.11,17.847 -2.11,26.597 l -0.69,0 c -13.3,-21.703 -31.5,-30.804 -57.75,-30.804 -29.06,0 -56.36,16.105 -56.36,47.957 0,53.207 62.65,56.703 101.85,56.703 l 11.56,0" /><path
         id="path4177"
         style="fill:#1a64b7;fill-opacity:1;fill-rule:nonzero;stroke:none"
         d="m 1231.94,494.219 c 0,14.703 -0.7,27.304 -1.41,51.101 l 22.76,0 0,-30.449 0.7,0 c 6.66,17.5 23.81,34.652 52.5,34.652 6.66,0 12.26,-0.699 17.15,-2.101 l -4.55,-22.75 c -2.8,1.047 -7,1.75 -13.28,1.75 -35.02,0 -50.77,-30.449 -50.77,-52.508 l 0,-92.398 -23.1,0 0,112.703" /><path
         id="path4179"
         style="fill:#1a64b7;fill-opacity:1;fill-rule:nonzero;stroke:none"
         d="m 1444.4,524.316 -47.27,0 0,-96.601 c 0,-24.5 9.46,-29.402 23.81,-29.402 8.05,0 16.8,2.453 23.79,6.3 l 1.06,-21.351 c -8.4,-3.852 -19.61,-5.953 -31.16,-5.953 -17.5,0 -40.6,7.707 -40.6,43.757 l 0,103.25 -34.65,0 0,21.004 34.65,0 0,46.203 23.1,0 0,-46.203 47.27,0 0,-21.004" /><path
         id="path4181"
         style="fill:#1a64b7;fill-opacity:1;fill-rule:nonzero;stroke:none"
         d="m 1603.29,476.016 c 0,31.156 -19.95,52.504 -53.21,52.504 -30.09,0 -57.4,-25.551 -57.4,-52.504 l 110.61,0 z m -111.31,-18.903 c 2.79,-32.898 27.65,-58.8 60.19,-58.8 24.51,0 43.42,13.652 52.52,28.351 l 17.85,-14.699 c -19.25,-24.504 -43.41,-34.656 -70.37,-34.656 -48.65,0 -84.7,36.757 -84.7,86.109 0,49.355 36.05,86.105 82.61,86.105 49.71,-0.347 78.4,-37.101 78.4,-81.906 l 0,-10.504 -136.5,0" /><path
         id="path4183"
         style="fill:#1a64b7;fill-opacity:1;fill-rule:nonzero;stroke:none"
         d="m 1658.93,494.219 c 0,14.703 -0.7,27.304 -1.41,51.101 l 22.76,0 0,-30.449 0.7,0 c 6.64,17.5 23.79,34.652 52.5,34.652 6.64,0 12.25,-0.699 17.15,-2.101 l -4.55,-22.75 c -2.79,1.047 -7.01,1.75 -13.3,1.75 -35,0 -50.74,-30.449 -50.74,-52.508 l 0,-92.398 -23.11,0 0,112.703" /><path
         id="path4185"
         style="fill:#1a64b7;fill-opacity:1;fill-rule:nonzero;stroke:none"
         d="m 1886.78,476.016 c 0,31.156 -19.96,52.504 -53.2,52.504 -30.12,0 -57.4,-25.551 -57.4,-52.504 l 110.6,0 z m -111.31,-18.903 c 2.8,-32.898 27.66,-58.8 60.22,-58.8 24.49,0 43.38,13.652 52.5,28.351 l 17.83,-14.699 c -19.24,-24.504 -43.4,-34.656 -70.33,-34.656 -48.67,0 -84.73,36.757 -84.73,86.109 0,49.355 36.06,86.105 82.62,86.105 49.69,-0.347 78.4,-37.101 78.4,-81.906 l 0,-10.504 -136.51,0" /><path
         id="path4187"
         style="fill:#1a64b7;fill-opacity:1;fill-rule:nonzero;stroke:none"
         d="m 2022.92,398.313 c 37.81,0 65.46,28.351 65.46,65.105 0,36.746 -27.65,65.102 -65.46,65.102 -38.15,0 -61.96,-28.356 -61.96,-65.102 0,-36.754 23.81,-65.105 61.96,-65.105 z m 87.51,-16.797 -23.1,0 0,27.297 -0.7,0 c -15.06,-22.051 -42,-31.504 -63.71,-31.504 -51.1,0 -87.15,36.757 -87.15,86.109 0,49.355 36.05,86.105 87.15,86.105 21.71,0 48.65,-9.449 63.71,-31.5 l 0.7,0 0,128.106 23.1,0 0,-264.613" /><path
         id="path4189"
         style="fill:#1a64b7;fill-opacity:1;fill-rule:nonzero;stroke:none"
         d="m 696.441,107.109 132.657,0 0,-23.1051 -157.86,0 0,247.8201 153.664,0 0,-23.094 -128.461,0 0,-84.355 120.059,0 0,-23.105 -120.059,0 0,-94.161" /><path
         id="path4191"
         style="fill:#1a64b7;fill-opacity:1;fill-rule:nonzero;stroke:none"
         d="m 878.441,247.813 c 1.047,-8.75 1.047,-17.5 1.047,-26.25 l 0.703,0 c 10.145,17.851 33.25,30.46 54.946,30.46 41.66,0 61.605,-23.449 61.605,-64.054 l 0,-103.9651 -23.097,0 0,90.6641 c 0,36.406 -10.153,56.348 -44.457,56.348 -4.903,0 -49.7,-3.145 -49.7,-62.996 l 0,-84.0161 -23.101,0 0,127.7661 c 0,8.75 -1.051,24.148 -1.746,36.043 l 23.8,0" /><path
         id="path4193"
         style="fill:#1a64b7;fill-opacity:1;fill-rule:nonzero;stroke:none"
         d="m 1114.69,105.012 c 33.61,0 63.36,25.203 61.96,63.008 0,34.304 -23.46,62.996 -61.96,62.996 -34.3,0 -60.91,-28.692 -60.91,-62.996 0,-34.309 26.61,-63.008 60.91,-63.008 z m -65.11,-53.8987 c 13.66,-18.2031 36.41,-30.0977 62.66,-30.0977 46.91,0 63.7,29.043 63.7,64.3946 l 0,29.3948 -0.7,0 c -14.69,-22.0511 -37.44,-30.8011 -61.25,-30.8011 -47.25,0 -85.41,35.3591 -85.41,83.3201 0,47.598 35,84.699 83.31,84.699 19.6,0 44.45,-5.949 63.35,-31.503 l 0.7,0 0,27.293 23.11,0 0,-162.4028 C 1199.05,49.707 1184.69,0 1111.2,0 c -32.56,0 -57.76,10.5078 -78.77,32.9102 l 17.15,18.2031" /><path
         id="path4195"
         style="fill:#1a64b7;fill-opacity:1;fill-rule:nonzero;stroke:none"
         d="m 1265.18,84.0039 -23.09,0 0,163.8091 23.09,0 0,-163.8091 z m -11.54,210.0191 c -8.4,0 -16.8,6.993 -16.8,16.797 0,9.809 8.4,16.809 16.8,16.809 8.4,0 16.79,-7 16.79,-16.809 0,-9.804 -8.39,-16.797 -16.79,-16.797" /><path
         id="path4197"
         style="fill:#1a64b7;fill-opacity:1;fill-rule:nonzero;stroke:none"
         d="m 1328.89,247.813 c 1.04,-8.75 1.04,-17.5 1.04,-26.25 l 0.7,0 c 10.16,17.851 33.26,30.46 54.96,30.46 41.64,0 61.6,-23.449 61.6,-64.054 l 0,-103.9651 -23.1,0 0,90.6641 c 0,36.406 -10.14,56.348 -44.46,56.348 -4.9,0 -49.7,-3.145 -49.7,-62.996 l 0,-84.0161 -23.11,0 0,127.7661 c 0,8.75 -1.03,24.148 -1.74,36.043 l 23.81,0" /><path
         id="path4199"
         style="fill:#1a64b7;fill-opacity:1;fill-rule:nonzero;stroke:none"
         d="m 1614.83,178.516 c 0,31.152 -19.94,52.5 -53.2,52.5 -30.1,0 -57.41,-25.547 -57.41,-52.5 l 110.61,0 z m -111.29,-18.907 c 2.79,-32.89 27.64,-58.796 60.2,-58.796 24.49,0 43.39,13.652 52.5,28.347 l 17.85,-14.695 c -19.26,-24.5041 -43.4,-34.6603 -70.35,-34.6603 -48.66,0 -84.71,36.7583 -84.71,86.1133 0,49.348 36.05,86.105 82.6,86.105 49.7,-0.343 78.41,-37.101 78.41,-81.906 l 0,-10.508 -136.5,0" /><path
         id="path4201"
         style="fill:#1a64b7;fill-opacity:1;fill-rule:nonzero;stroke:none"
         d="m 1802.43,178.516 c 0,31.152 -19.94,52.5 -53.19,52.5 -30.11,0 -57.42,-25.547 -57.42,-52.5 l 110.61,0 z m -111.31,-18.907 c 2.81,-32.89 27.67,-58.796 60.21,-58.796 24.51,0 43.4,13.652 52.5,28.347 l 17.85,-14.695 c -19.25,-24.5041 -43.39,-34.6603 -70.35,-34.6603 -48.65,0 -84.7,36.7583 -84.7,86.1133 0,49.348 36.05,86.105 82.61,86.105 49.69,-0.343 78.4,-37.101 78.4,-81.906 l 0,-10.508 -136.52,0" /><path
         id="path4203"
         style="fill:#1a64b7;fill-opacity:1;fill-rule:nonzero;stroke:none"
         d="m 1858.07,196.719 c 0,14.699 -0.68,27.297 -1.39,51.094 l 22.76,0 0,-30.442 0.68,0 c 6.66,17.5 23.81,34.652 52.5,34.652 6.66,0 12.27,-0.707 17.17,-2.101 l -4.55,-22.754 c -2.81,1.055 -7.01,1.75 -13.3,1.75 -35,0 -50.76,-30.441 -50.76,-52.5 l 0,-92.4141 -23.11,0 0,112.7151" /></g></g></svg>