<?xml version="1.0" encoding="UTF-8" standalone="no"?>
<svg
   xmlns:dc="http://purl.org/dc/elements/1.1/"
   xmlns:cc="http://creativecommons.org/ns#"
   xmlns:rdf="http://www.w3.org/1999/02/22-rdf-syntax-ns#"
   xmlns:svg="http://www.w3.org/2000/svg"
   xmlns="http://www.w3.org/2000/svg"
   xmlns:sodipodi="http://sodipodi.sourceforge.net/DTD/sodipodi-0.dtd"
   xmlns:inkscape="http://www.inkscape.org/namespaces/inkscape"
   version="1.1"
   id="svg2"
   viewBox="0 0 181.38966 181.7156"
   height="51.28418mm"
   width="51.192192mm"
   inkscape:version="0.91 r13725"
   sodipodi:docname="scholar.svg">
  <sodipodi:namedview
     pagecolor="#ffffff"
     bordercolor="#666666"
     borderopacity="1"
     objecttolerance="10"
     gridtolerance="10"
     guidetolerance="10"
     inkscape:pageopacity="0"
     inkscape:pageshadow="2"
     inkscape:window-width="1114"
     inkscape:window-height="731"
     id="namedview3341"
     showgrid="false"
     fit-margin-top="0"
     fit-margin-left="0"
     fit-margin-right="0"
     fit-margin-bottom="0"
     inkscape:zoom="0.55969323"
     inkscape:cx="363.97209"
     inkscape:cy="168.20197"
     inkscape:window-x="0"
     inkscape:window-y="0"
     inkscape:window-maximized="0"
     inkscape:current-layer="svg2" />
  <defs
     id="defs4" />
  <metadata
     id="metadata7">
    <rdf:RDF>
      <cc:Work
         rdf:about="">
        <dc:format>image/svg+xml</dc:format>
        <dc:type
           rdf:resource="http://purl.org/dc/dcmitype/StillImage" />
        <dc:title></dc:title>
      </cc:Work>
    </rdf:RDF>
  </metadata>
  <g
     id="layer1"
     transform="translate(-8.0751528,-12.39343)">
    <path
       id="path3347"
       d="m 23.200401,193.46573 c -5.41888,-1.31097 -10.82814,-5.56332 -13.13272,-10.32394 -2.1365698,-4.41356 -2.1390598,-4.52211 -1.8711498,-81.39424 l 0.26828,-76.974787 2.7477098,-3.602017 c 1.51124,-1.981109 4.21124,-4.645893 6,-5.921743 l 3.25229,-2.319725 77.05882,-0.267924 77.058819,-0.267924 4.44118,2.345563 c 2.92917,1.547013 5.46253,3.994691 7.44118,7.189504 l 3,4.843941 0,76.078422 c 0,72.40996 -0.0902,76.24719 -1.87059,79.57842 -2.64343,4.94603 -4.55471,6.90484 -9.12941,9.35641 -3.97772,2.13165 -4.41224,2.1445 -78,2.30669 -40.699999,0.0897 -75.468979,-0.19228 -77.264409,-0.62665 z m 83.719069,-8.49902 c 13.86261,-3.72162 25.41757,-12.46712 30.67794,-23.21893 2.27553,-4.65101 2.81184,-7.09594 2.81184,-12.8185 0,-9.88807 -3.36654,-16.57012 -12.21795,-24.2507 -14.32616,-12.43116 -16.2267,-14.43906 -16.2199,-17.13614 0.009,-3.42315 2.10247,-6.30662 10.05493,-13.846821 3.60883,-3.42175 7.60203,-8.3048 8.87377,-10.85121 2.7379,-5.48213 3.76147,-15.235802 2.19429,-20.909524 l -1.10333,-3.994393 9.23688,-9.28917 c 7.51699,-7.559555 9.29599,-8.913404 9.5544,-7.271058 0.17464,1.109962 -0.38786,3.025193 -1.25,4.256069 -1.32301,1.888851 -1.56753,6.181075 -1.56753,27.515456 0,23.94416 0.1055,25.38299 2,27.277491 2.55698,2.55698 6.44302,2.55698 9,0 1.89487,-1.894871 2,-3.333331 2,-27.365141 0,-23.850948 -0.11939,-25.516926 -2,-27.907732 -1.38061,-1.755162 -2,-4.056784 -2,-7.431911 0,-4.38656 0.41131,-5.29096 4,-8.795218 2.2,-2.148243 4,-4.264569 4,-4.702948 0,-0.438378 -21.25898,-0.797052 -47.24218,-0.797052 l -47.242189,0 -23.25782,23.24202 c -12.79179,12.783112 -23.25781,23.583112 -23.25781,24 0,0.416889 6.9125,0.75798 15.36111,0.75798 l 15.36111,0 0.52796,5.822391 c 1.37047,15.11382 13.62155,26.234331 29.74982,27.004431 l 7.5,0.35811 -0.33827,5.89667 c -0.26682,4.65101 0.10551,6.61473 1.76248,9.29576 2.42907,3.93033 1.70786,4.62264 -4.81561,4.62264 -5.26837,0 -19.71247,3.79463 -25.44881,6.6857 -6.28164,3.16588 -13.29313,9.67527 -15.87694,14.73994 -2.5085,4.91706 -3.45378,15.0114 -1.85841,19.8454 3.33279,10.09846 16.80423,18.83648 32.57556,21.12959 5.37719,0.78183 22.868419,-0.36349 28.454659,-1.8632 z m -17.663169,-8.59909 c -19.13236,-2.49011 -29.79469,-16.42527 -23.37838,-30.55443 3.71562,-8.18203 14.27437,-13.19742 29.72474,-14.1192 l 9.148729,-0.54583 5.8982,4.53856 c 7.39372,5.68934 13.07024,11.91829 13.90984,15.26353 0.35496,1.41427 0.44455,4.99316 0.19909,7.95308 -0.81739,9.85664 -7.58688,15.63689 -20.4996,17.50396 -3.73676,0.54031 -7.244109,0.93422 -7.794109,0.87538 -0.55,-0.0588 -3.79383,-0.47062 -7.20851,-0.91505 z m 0.91501,-80.607081 c -4.80005,-2.3657 -10.82314,-9.70335 -13.28473,-16.18417 -1.32404,-3.48589 -2.32314,-8.900125 -2.6106,-14.147091 -0.41058,-7.494243 -0.19031,-9.025532 1.86158,-12.941457 3.53895,-6.753941 6.66123,-8.558543 14.80776,-8.558543 6.13478,0 7.22695,0.315152 10.676669,3.080822 5.14055,4.121222 11.01475,15.842053 12.35204,24.646114 1.86001,12.245325 -0.88382,19.433415 -8.97918,23.523065 -5.231419,2.64283 -10.241939,2.8393 -14.823539,0.58126 z"
       style="fill:#ffffff;fill-opacity:1"
       inkscape:connector-curvature="0" />
  </g>
</svg>
